# xmcd
#
# Track frame offsets:
#	150
#	16607
#	30365
#	45060
#	62220
#	75580
#	93560
#	110222
#	126642
#	144330
#	156310
#	171852
#	182535
#	194675
#	211667
#	213097
#
# Disc length: 2871
#
# Revision: 2
# Processed by: cddbd v1.5.1PL0 Copyright (c) Steve Scherf et al.
# Submitted via: CDex 1.50beta9
# Normalized: r1:TDELIM( - )
#
DISCID=d30b3510
DTITLE=Various Artist - CDX Volume 170 - Sept 1997
DYEAR=1997
DGENRE=Country
TTITLE0=Michael Peterson - From Here To Eternity
TTITLE1=Tracy Byrd - Good Ol' Fashioned Love
TTITLE2=Rhett Akins - More Than Everything
TTITLE3=Delbert McClinton - Sending Me Angels
TTITLE4=Victoria Hawks - She's Waiting
TTITLE5=Tracy Lawrence - The Coast Is Clear
TTITLE6=John Berry - The Stone
TTITLE7=Patty Loveless and George Jones - You Don't Seem To Miss Me
TTITLE8=Jerry Adams - When It Comes Down To Me
TTITLE9=Baillie and The Boys - Lovin' Every Minute
TTITLE10=Big Ed Johnson - Smoker's Letter To The President
TTITLE11=Tom T Hall - Bill Monroe For Breakfast
TTITLE12=Tom T Hall - Life Don't Have To Mean Nothing At All
TTITLE13=Victoria Hawks - She's Waiting (DT)
TTITLE14=John Berry - PSA Make A Difference Day
TTITLE15=John Berry - PSA Make A Difference Day
EXTD=YEAR: 1997
EXTT0=
EXTT1=
EXTT2=
EXTT3=
EXTT4=
EXTT5=
EXTT6=
EXTT7=
EXTT8=
EXTT9=
EXTT10=
EXTT11=
EXTT12=
EXTT13=
EXTT14=
EXTT15=
PLAYORDER=
